<?xml version="1.0" encoding="utf-8"?>
<!-- Generator: Adobe Illustrator 18.1.1, SVG Export Plug-In . SVG Version: 6.00 Build 0)  -->
<!DOCTYPE svg PUBLIC "-//W3C//DTD SVG 1.1//EN" "http://www.w3.org/Graphics/SVG/1.1/DTD/svg11.dtd">
<svg version="1.1" id="_x31_0" xmlns="http://www.w3.org/2000/svg" xmlns:xlink="http://www.w3.org/1999/xlink" x="0px" y="0px"
	 viewBox="0 0 512 512" style="enable-background:new 0 0 512 512;" xml:space="preserve">
<style type="text/css">
	.st0{fill:#374149;}
</style>
<g>
	<path class="st0" d="M202.855,449.482c-0.227-0.149-0.454-0.301-0.68-0.453c-4.379-2.934-8.851-6.11-13.386-9.454
		c-3.989-2.969-7.985-5.91-11.91-9.129c-0.004,0.008-0.012,0.016-0.016,0.023c-0.042-0.031-0.086-0.062-0.125-0.098
		c-3.082,5.902-7.106,11.286-12.019,16.195c-27.375,27.375-66.402,16.356-91.058-8.304c-24.661-24.661-35.684-63.688-8.254-91.118
		c4.797-4.797,10.059-8.714,15.707-11.77c0.086-0.042,0.172-0.102,0.258-0.144c0,0-0.007-0.008-0.011-0.016
		c0.046-0.023,0.09-0.058,0.137-0.086c-9.402-11.805-17.398-23.141-24.188-34.008c-7.574,4.543-14.785,10.082-21.316,16.61
		c-8.73,8.734-15.985,18.234-21.707,28.226c-0.16,0.281-0.293,0.566-0.453,0.843c-1.598,2.844-3.082,5.715-4.414,8.633
		c-0.348,0.758-0.637,1.52-0.961,2.278c-1.09,2.527-2.11,5.07-2.996,7.649c-0.27,0.789-0.489,1.582-0.738,2.371
		c-0.836,2.656-1.594,5.32-2.211,8.015c-0.117,0.508-0.203,1.019-0.309,1.527c-0.652,3.062-1.168,6.141-1.519,9.246
		c-0.004,0.008-0.004,0.011-0.004,0.019c-3.378,29.688,6.926,61.004,35.313,89.39c52.347,52.348,114.57,43.626,158.14,0.051
		c6.414-6.414,11.754-13.39,16.278-20.797c0.094-0.153,0.211-0.286,0.305-0.438h-0.004c0.027-0.047,0.062-0.086,0.09-0.133
		C208.179,452.978,205.53,451.263,202.855,449.482z"/>
	<path class="st0" d="M476.167,48.705c-2.09-2.301-4.129-4.547-6.27-6.688c-2.145-2.144-4.39-4.179-6.637-6.218
		c-54.645-48.274-139.805-47.649-193.773,1.41c-21.578,19.594-36.57,44.824-43.465,72.934c-3.45,13.586-4.754,27.847-4.028,42.164
		c0.055,0.574,0.106,1.254,0.106,1.878l-0.05,0.367v0.313c-0.047,2.289-0.332,4.566-0.719,6.824
		c-0.078,0.324-0.113,0.664-0.21,0.985c-1.566-2.754-3.766-5.07-6.539-6.817c-16.145-10.187-32.547-18.965-48.43-25.34
		C89.55,99.701,16.633,146.709,53.277,244.228c0.43,1.156,0.859,2.309,1.324,3.488c0.738,1.848,1.477,3.699,2.294,5.582
		c1.238,2.886,2.602,5.847,4.054,8.859c0.695,1.43,1.418,2.875,2.156,4.324c1.692,3.332,3.477,6.715,5.442,10.195
		c0.687,1.215,1.446,2.458,2.16,3.688c1.637,2.793,3.367,5.637,5.188,8.523c1.094,1.742,2.195,3.481,3.351,5.242
		c1.946,2.961,4,5.973,6.145,9.027c1.558,2.226,3.168,4.465,4.824,6.726c0.863,1.172,1.789,2.371,2.68,3.558
		c3.867,5.157,7.992,10.394,12.37,15.719c0.008,0.007,0.016,0.015,0.024,0.027c10.738,13.046,22.863,26.539,36.878,40.554
		c19.582,19.582,38.188,35.653,55.852,48.938c0.633,0.477,1.266,0.957,1.898,1.426c3.519,2.618,7,5.125,10.438,7.508
		c1.285,0.89,2.546,1.738,3.812,2.594c2.981,2.008,5.946,3.985,8.863,5.817c1.614,1.015,3.168,1.934,4.75,2.89
		c2.633,1.59,5.277,3.214,7.855,4.664c1.41,0.793,2.746,1.457,4.133,2.207c4.84,2.613,9.578,4.984,14.219,7.117
		c1.434,0.657,2.894,1.359,4.301,1.969c2.484,1.078,4.918,2.043,7.343,2.985c1.125,0.438,2.246,0.871,3.348,1.273
		c2.629,0.969,5.226,1.871,7.781,2.68c0.336,0.106,0.657,0.191,0.985,0.293c90.656,28.07,133.386-42.422,103.648-116.339
		c-6.371-15.883-15.148-32.286-25.336-48.43c-1.398-2.219-3.234-3.954-5.266-5.383c-0.504-0.402-0.965-0.859-1.5-1.218
		c2.524-0.555,5.188-0.762,7.809-0.817l0.262-0.05l0.363-0.051c0.68,0.051,1.309,0.051,1.934,0.051
		c14.266,0.781,28.527-0.524,42.27-4.024c27.95-6.843,53.18-21.836,72.774-43.312C523.761,188.458,524.441,103.349,476.167,48.705z
		 M452.862,222.572c-16.195,17.766-36.515,29.308-58.094,34.59c-2.18,0.546-4.379,0.973-6.578,1.382
		c-0.851,0.161-1.695,0.336-2.546,0.473c-8.126,1.332-16.375,1.786-24.57,1.328c-1.414-0.05-2.824-0.102-4.34-0.05
		c-8.148,0.102-16.141,1.515-23.714,4.074c-16.668,5.695-31.398,16.976-41.692,31.867l-16.406,23.617
		c-12.852,17.867-26.434,5.117-57.207-25.652c-30.774-30.774-43.52-44.356-25.653-57.211l23.614-16.402
		c14.89-10.293,26.176-25.023,31.871-41.691c2.558-7.574,3.973-15.57,4.074-23.719c0.05-1.511,0-2.926-0.051-4.335
		c-0.629-11.286,0.418-22.672,3.184-33.696c5.281-21.578,16.824-41.902,34.586-58.098c43.262-39.289,110.55-39.812,154.328-1.148
		c1.832,1.617,3.61,3.289,5.332,5.012c1.722,1.726,3.394,3.5,5.012,5.332c16.414,18.586,25.691,41.418,28.011,64.843
		c0.801,8.149,0.77,16.359-0.113,24.504C479.319,181.166,469.667,204.072,452.862,222.572z M302.453,402.556
		c-12.278-12.278-15.462-30.094-7.313-39.602c3.957-4.633,9.882-6.43,16.293-5.618c0.047,0.004,0.09,0.008,0.137,0.016
		c6.418,0.851,13.317,4.316,19.199,10.199c11.809,11.809,15.359,29.152,7.89,38.922c-3.805,5.004-9.77,7.09-16.316,6.406
		c-0.035-0.004-0.07-0.008-0.106-0.012C315.69,412.154,308.573,408.677,302.453,402.556z M124.652,219.263
		c-1.766-0.633-3.523-1.406-5.25-2.328c-0.011-0.008-0.023-0.012-0.031-0.02c-3.539-1.894-6.949-4.39-10.011-7.457
		c-4.504-4.504-7.551-9.547-9.149-14.512c-0.062-0.199-0.129-0.398-0.191-0.602c-0.457-1.538-0.786-3.07-0.954-4.57
		c-0.023-0.167-0.023-0.335-0.038-0.503c-0.594-6.434,1.461-12.297,6.363-16.07c7.324-5.602,18.934-4.977,29.262,0.664
		c0.011,0.008,0.023,0.015,0.035,0.019c3.438,1.879,6.73,4.313,9.675,7.262c4.352,4.352,7.36,9.258,8.989,14.114
		c0.054,0.16,0.11,0.316,0.16,0.473c0.484,1.542,0.844,3.082,1.047,4.594c0.011,0.086,0.011,0.172,0.023,0.262
		c0.781,6.367-1.016,12.254-5.621,16.184c-5.902,5.062-15.004,5.734-24,2.598C124.859,219.334,124.757,219.298,124.652,219.263z"/>
	<path class="st0" d="M333.097,72.834c-6.492,6.492-6.492,17.019,0,23.511c6.492,6.493,17.016,6.493,23.508,0
		c8.285-8.281,21.758-8.281,30.043,0c6.492,6.493,17.015,6.493,23.507,0c6.493-6.492,6.493-17.019,0-23.511
		C388.913,51.591,354.339,51.591,333.097,72.834z"/>
</g>
</svg>
