<?xml version="1.0" encoding="UTF-8" standalone="no"?>
<svg
   xmlns:dc="http://purl.org/dc/elements/1.1/"
   xmlns:cc="http://creativecommons.org/ns#"
   xmlns:rdf="http://www.w3.org/1999/02/22-rdf-syntax-ns#"
   xmlns:svg="http://www.w3.org/2000/svg"
   xmlns="http://www.w3.org/2000/svg"
   xmlns:sodipodi="http://sodipodi.sourceforge.net/DTD/sodipodi-0.dtd"
   xmlns:inkscape="http://www.inkscape.org/namespaces/inkscape"
   version="1.1"
   x="0px"
   y="0px"
   viewBox="0 0 99.600998 81.339996"
   enable-background="new 0 0 100 100"
   xml:space="preserve"
   id="svg2"
   inkscape:version="0.91 r13725"
   sodipodi:docname="briefcase.svg"
   width="99.600998"
   height="81.339996"><metadata
     id="metadata16"><rdf:RDF><cc:Work
         rdf:about=""><dc:format>image/svg+xml</dc:format><dc:type
           rdf:resource="http://purl.org/dc/dcmitype/StillImage" /><dc:title></dc:title></cc:Work></rdf:RDF></metadata><defs
     id="defs14" /><sodipodi:namedview
     pagecolor="#ffffff"
     bordercolor="#666666"
     borderopacity="1"
     objecttolerance="10"
     gridtolerance="10"
     guidetolerance="10"
     inkscape:pageopacity="0"
     inkscape:pageshadow="2"
     inkscape:window-width="1366"
     inkscape:window-height="699"
     id="namedview12"
     showgrid="false"
     inkscape:zoom="1.888"
     inkscape:cx="-37.328237"
     inkscape:cy="28.17"
     inkscape:window-x="0"
     inkscape:window-y="18"
     inkscape:window-maximized="1"
     inkscape:current-layer="svg2"
     fit-margin-top="0"
     fit-margin-left="0"
     fit-margin-right="0"
     fit-margin-bottom="0" /><g
     id="g4"
     transform="translate(-0.199,-9.33)"
     style="fill:#4b4b4b;fill-opacity:1"><path
       d="m 99.8,90.67 -99.601,0 0,-63.08 24.9,0 0,-18.26 49.801,0 0,18.26 24.9,0 0,63.08 z M 6.84,34.23 l 0,18.26 86.32,0 0,-18.26 -86.32,0 z m 73.04,24.901 0,6.639 -16.601,0 0,-6.639 -26.559,0 0,6.639 -16.601,0 0,-6.639 -13.279,0 0,24.898 86.32,0 0,-24.898 -13.28,0 z M 68.26,27.59 l 0,-11.619 -36.52,0 0,11.619 36.52,0 z"
       id="path6"
       inkscape:connector-curvature="0"
       style="fill:#4b4b4b;fill-opacity:1" /></g></svg>